<?xml version="1.0" standalone="no"?>
<!DOCTYPE svg PUBLIC "-//W3C//DTD SVG 20010904//EN"
 "http://www.w3.org/TR/2001/REC-SVG-20010904/DTD/svg10.dtd">
<svg version="1.0" xmlns="http://www.w3.org/2000/svg"
 width="800.000000pt" height="226.000000pt" viewBox="0 0 800.000000 226.000000"
 preserveAspectRatio="xMidYMid meet">

<g transform="translate(0.000000,226.000000) scale(0.100000,-0.100000)"
fill="#04ADBF" stroke="none">
<path d="M506 1710 c-11 -58 -8 -68 25 -75 30 -7 30 -7 25 -58 -4 -29 -15
-160 -26 -292 -34 -398 -50 -578 -57 -612 l-5 -33 100 0 101 0 5 43 c3 23 8
76 11 117 10 139 60 694 71 788 l5 52 42 -1 c70 -2 91 -12 111 -53 17 -35 18
-47 7 -155 -6 -64 -23 -241 -37 -394 -24 -270 -25 -279 -7 -314 29 -59 63 -77
149 -81 l74 -4 0 51 c0 41 -4 52 -21 61 -18 10 -20 18 -15 73 4 34 17 193 31
352 14 160 27 307 29 328 9 85 -34 161 -117 205 -51 26 -55 27 -273 30 l-221
4 -7 -32z"/>
<path d="M3550 1690 c0 -47 2 -50 25 -50 14 0 25 -6 25 -12 0 -7 -5 -65 -10
-128 -6 -63 -15 -164 -20 -225 -5 -60 -16 -182 -25 -270 -22 -241 -22 -248 21
-295 39 -43 106 -70 175 -70 33 0 37 3 43 31 9 45 9 42 -30 83 -32 33 -35 40
-30 79 4 23 22 220 41 437 19 217 37 412 40 433 l5 37 -130 0 -130 0 0 -50z"/>
<path d="M5676 1698 c-3 -24 -10 -108 -16 -188 -18 -244 -36 -446 -60 -690 -5
-58 -10 -122 -10 -142 l0 -38 94 0 95 0 5 43 c3 23 10 107 16 187 5 80 13 171
16 202 l6 57 131 3 132 3 3 48 3 47 -130 0 c-72 0 -131 2 -131 5 0 21 31 347
35 373 l6 32 182 0 182 0 -7 -97 c-7 -115 -24 -305 -38 -453 -22 -228 -24
-323 -6 -357 25 -50 96 -86 170 -87 l61 -1 3 39 c3 33 -1 43 -27 67 -18 16
-31 38 -31 52 0 13 9 124 20 248 11 123 27 303 35 399 9 96 18 201 21 233 l6
57 -380 0 -381 0 -5 -42z"/>
<path d="M2466 1553 c-3 -21 -6 -62 -6 -90 l0 -53 -40 0 c-35 0 -40 -3 -40
-22 0 -13 -3 -33 -6 -45 -5 -19 -2 -22 33 -25 l38 -3 -3 -55 c-2 -54 -13 -176
-32 -377 -11 -114 -3 -149 47 -194 40 -37 82 -51 144 -47 l54 3 3 40 c3 35 -2
45 -28 68 -16 15 -30 35 -30 45 0 9 9 116 20 237 11 121 20 232 20 248 0 25 3
27 39 27 46 0 46 1 56 57 l7 42 -44 3 c-24 2 -42 8 -42 13 1 6 5 45 9 88 l7
77 -100 0 -99 0 -7 -37z"/>
<path d="M1394 1389 c-55 -21 -115 -72 -138 -118 -16 -30 -29 -120 -47 -331
-11 -131 -11 -137 10 -178 43 -85 139 -128 264 -120 135 9 230 74 261 178 8
28 23 133 32 233 16 181 16 184 -4 229 -22 51 -68 90 -131 113 -62 21 -184 19
-247 -6z m175 -105 c26 -32 26 -56 5 -290 -15 -182 -26 -220 -66 -248 -32 -22
-51 -20 -82 10 -23 24 -26 35 -26 94 0 95 30 381 42 405 32 62 90 75 127 29z"/>
<path d="M2046 1398 c-56 -15 -131 -91 -146 -148 -22 -79 -1 -129 107 -257
100 -118 117 -174 69 -230 -24 -27 -27 -28 -122 -28 -96 0 -98 -1 -105 -25 -4
-14 -7 -35 -8 -47 -1 -23 0 -23 142 -23 177 0 229 13 291 73 70 67 82 152 36
252 -10 22 -59 91 -109 154 -86 107 -96 125 -91 161 3 25 21 30 106 30 l82 0
6 31 c14 72 18 69 -106 68 -62 -1 -131 -6 -152 -11z"/>
<path d="M2992 1395 c-79 -24 -147 -84 -172 -151 -14 -35 -42 -421 -34 -457 9
-42 62 -97 119 -123 85 -40 218 -30 273 20 16 14 27 17 36 11 62 -46 73 -50
142 -53 l72 -4 7 43 c8 44 6 46 -41 74 -18 11 -16 55 16 410 5 55 12 133 15
173 l6 72 -198 -1 c-136 0 -211 -5 -241 -14z m230 -125 c-4 -91 -24 -317 -32
-383 -13 -104 -53 -150 -132 -150 -54 0 -88 36 -88 92 0 95 41 436 55 457 13
20 25 24 87 27 120 6 113 8 110 -43z"/>
<path d="M4016 1390 c-108 -42 -130 -88 -147 -301 -12 -155 -12 -157 10 -192
25 -41 100 -81 171 -93 55 -8 103 -53 119 -109 22 -79 32 -74 -166 -77 l-178
-3 -8 -90 c-9 -106 -6 -123 30 -166 93 -110 391 -99 479 17 17 22 28 53 33 86
6 50 8 53 36 56 37 5 45 16 45 65 0 34 -2 37 -29 37 -26 0 -29 4 -34 45 -8 56
-36 111 -76 149 l-31 29 40 43 c22 24 40 45 40 46 0 2 6 75 14 163 7 88 13
174 12 190 -1 28 2 30 37 33 33 3 37 6 37 32 0 16 3 35 6 44 5 14 -15 16 -192
16 -171 -1 -206 -4 -248 -20z m141 -78 c28 -18 31 -58 16 -212 -17 -172 -27
-200 -73 -200 -51 0 -55 25 -36 211 9 89 21 170 26 179 14 27 44 37 67 22z
m13 -814 c0 -103 -77 -163 -137 -106 -18 17 -23 32 -23 75 l0 53 80 0 c76 0
80 -1 80 -22z"/>
<path d="M4510 1366 c0 -39 3 -45 26 -50 25 -7 26 -9 20 -59 -11 -94 -39 -421
-38 -453 1 -93 90 -163 208 -164 34 0 44 13 44 59 0 18 -11 37 -31 56 l-32 28
7 81 c13 171 36 433 42 489 l7 57 -127 0 -126 0 0 -44z"/>
<path d="M5060 1394 c-62 -19 -133 -74 -154 -118 -23 -48 -33 -114 -47 -311
-13 -190 -10 -206 54 -260 95 -81 247 -87 348 -14 13 10 23 7 54 -17 32 -24
49 -29 111 -32 l72 -4 7 31 c8 39 -1 68 -25 76 -10 3 -21 12 -24 20 -3 8 3
117 14 242 10 125 21 267 25 316 l7 87 -199 -1 c-142 0 -211 -4 -243 -15z
m237 -89 c3 -9 1 -64 -5 -123 -6 -59 -14 -138 -17 -177 -15 -189 -28 -224 -98
-259 -48 -23 -91 -13 -120 26 -20 27 -20 32 -8 180 29 351 30 354 105 361 102
9 137 7 143 -8z"/>
<path d="M6510 1381 c0 -16 -3 -36 -6 -45 -5 -12 2 -18 26 -22 31 -7 32 -7 25
-52 -9 -62 -24 -243 -31 -388 -6 -105 -5 -124 11 -148 27 -41 94 -75 162 -82
l61 -7 4 44 c4 39 1 47 -25 72 -29 28 -30 30 -24 105 15 199 37 462 43 505 l6
47 -126 0 -126 0 0 -29z"/>
<path d="M6869 1375 c-1 -19 -2 -41 -3 -47 -1 -7 9 -14 22 -16 21 -3 22 -6 16
-66 -8 -77 5 -121 52 -177 l35 -42 -35 -29 c-45 -37 -82 -117 -91 -193 -5 -44
-13 -65 -31 -82 -15 -14 -24 -33 -24 -53 l0 -30 119 0 119 0 7 103 c8 127 18
168 51 207 34 39 65 39 99 -2 27 -32 28 -34 21 -133 -4 -55 -9 -117 -12 -137
l-6 -38 126 0 126 0 0 50 c0 43 -3 50 -20 50 -18 0 -19 6 -18 83 2 89 -11 127
-60 180 l-27 28 38 35 c49 46 75 100 85 172 6 39 15 65 30 80 12 12 22 31 22
41 0 11 3 26 6 35 5 14 -9 16 -120 16 l-126 0 0 -73 c0 -153 -40 -257 -98
-257 -20 0 -34 10 -51 35 -23 35 -24 40 -17 165 l6 130 -120 0 -120 0 -1 -35z"/>
</g>
</svg>
